<?xml version="1.0" encoding="UTF-8" standalone="no"?>
<!-- Generator: Adobe Illustrator 16.0.0, SVG Export Plug-In . SVG Version: 6.00 Build 0)  -->

<svg
   version="1.1"
   x="0px"
   y="0px"
   width="1.73in"
   height="2in"
   viewBox="0 0 166.08 192"
   enable-background="new 0 0 170.08 170.08"
   xml:space="preserve"
   id="svg30"
   sodipodi:docname="forecoML1.svg"
   inkscape:version="1.4.2 (ebf0e940, 2025-05-08)"
   xmlns:inkscape="http://www.inkscape.org/namespaces/inkscape"
   xmlns:sodipodi="http://sodipodi.sourceforge.net/DTD/sodipodi-0.dtd"
   xmlns="http://www.w3.org/2000/svg"
   xmlns:svg="http://www.w3.org/2000/svg"><defs
   id="defs30"><marker
     style="overflow:visible"
     id="Dot-7-1-1-9"
     refX="0"
     refY="0"
     orient="auto"
     inkscape:stockid="Dot"
     markerWidth="1"
     markerHeight="1"
     viewBox="0 0 1 1"
     inkscape:isstock="true"
     inkscape:collect="always"
     preserveAspectRatio="xMidYMid"
     markerUnits="userSpaceOnUse"><path
       transform="scale(0.5)"
       style="fill:context-stroke;fill-rule:evenodd;stroke:none"
       d="M 5,0 C 5,2.76 2.76,5 0,5 -2.76,5 -5,2.76 -5,0 c 0,-2.76 2.3,-5 5,-5 2.76,0 5,2.24 5,5 z"
       sodipodi:nodetypes="sssss"
       id="path9-3-7-2-4" /></marker><marker
     style="overflow:visible"
     id="marker10-4-9-1-1"
     refX="0"
     refY="0"
     orient="auto"
     inkscape:stockid="Dot"
     markerWidth="1"
     markerHeight="1"
     viewBox="0 0 1 1"
     inkscape:isstock="true"
     inkscape:collect="always"
     preserveAspectRatio="xMidYMid"
     markerUnits="userSpaceOnUse"><path
       transform="scale(0.5)"
       style="fill:context-stroke;fill-rule:evenodd;stroke:none"
       d="M 5,0 C 5,2.76 2.76,5 0,5 -2.76,5 -5,2.76 -5,0 c 0,-2.76 2.3,-5 5,-5 2.76,0 5,2.24 5,5 z"
       sodipodi:nodetypes="sssss"
       id="path10-3-66-2-3" /></marker><inkscape:path-effect
     effect="spiro"
     id="path-effect566-6-5-7"
     is_visible="true"
     lpeversion="1" /><marker
     style="overflow:visible"
     id="marker22-4-4-6-8"
     refX="0"
     refY="0"
     orient="auto"
     inkscape:stockid="Dot"
     markerWidth="1"
     markerHeight="1"
     viewBox="0 0 1 1"
     inkscape:isstock="true"
     inkscape:collect="always"
     preserveAspectRatio="xMidYMid"
     markerUnits="userSpaceOnUse"><path
       transform="scale(0.5)"
       style="fill:context-stroke;fill-rule:evenodd;stroke:none"
       d="M 5,0 C 5,2.76 2.76,5 0,5 -2.76,5 -5,2.76 -5,0 c 0,-2.76 2.3,-5 5,-5 2.76,0 5,2.24 5,5 z"
       sodipodi:nodetypes="sssss"
       id="path22-8-44-4-8" /></marker><marker
     style="overflow:visible"
     id="Dot-5-8-3"
     refX="0"
     refY="0"
     orient="auto"
     inkscape:stockid="Dot"
     markerWidth="1"
     markerHeight="1"
     viewBox="0 0 1 1"
     inkscape:isstock="true"
     inkscape:collect="always"
     preserveAspectRatio="xMidYMid"
     markerUnits="userSpaceOnUse"><path
       transform="scale(0.5)"
       style="fill:context-stroke;fill-rule:evenodd;stroke:none"
       d="M 5,0 C 5,2.76 2.76,5 0,5 -2.76,5 -5,2.76 -5,0 c 0,-2.76 2.3,-5 5,-5 2.76,0 5,2.24 5,5 z"
       sodipodi:nodetypes="sssss"
       id="path9-7-0-8" /></marker><marker
     style="overflow:visible"
     id="marker10-6-1-1"
     refX="0"
     refY="0"
     orient="auto"
     inkscape:stockid="Dot"
     markerWidth="1"
     markerHeight="1"
     viewBox="0 0 1 1"
     inkscape:isstock="true"
     inkscape:collect="always"
     preserveAspectRatio="xMidYMid"
     markerUnits="userSpaceOnUse"><path
       transform="scale(0.5)"
       style="fill:context-stroke;fill-rule:evenodd;stroke:none"
       d="M 5,0 C 5,2.76 2.76,5 0,5 -2.76,5 -5,2.76 -5,0 c 0,-2.76 2.3,-5 5,-5 2.76,0 5,2.24 5,5 z"
       sodipodi:nodetypes="sssss"
       id="path10-7-0-5" /></marker><inkscape:path-effect
     effect="spiro"
     id="path-effect568-7-5-3"
     is_visible="true"
     lpeversion="1" /><marker
     style="overflow:visible"
     id="marker22-0-4-5"
     refX="0"
     refY="0"
     orient="auto"
     inkscape:stockid="Dot"
     markerWidth="1"
     markerHeight="1"
     viewBox="0 0 1 1"
     inkscape:isstock="true"
     inkscape:collect="always"
     preserveAspectRatio="xMidYMid"
     markerUnits="userSpaceOnUse"><path
       transform="scale(0.5)"
       style="fill:context-stroke;fill-rule:evenodd;stroke:none"
       d="M 5,0 C 5,2.76 2.76,5 0,5 -2.76,5 -5,2.76 -5,0 c 0,-2.76 2.3,-5 5,-5 2.76,0 5,2.24 5,5 z"
       sodipodi:nodetypes="sssss"
       id="path22-21-2-4" /></marker><marker
     style="overflow:visible"
     id="Dot-6-1-6-3"
     refX="0"
     refY="0"
     orient="auto"
     inkscape:stockid="Dot"
     markerWidth="1"
     markerHeight="1"
     viewBox="0 0 1 1"
     inkscape:isstock="true"
     inkscape:collect="always"
     preserveAspectRatio="xMidYMid"
     markerUnits="userSpaceOnUse"><path
       transform="scale(0.5)"
       style="fill:context-stroke;fill-rule:evenodd;stroke:none"
       d="M 5,0 C 5,2.76 2.76,5 0,5 -2.76,5 -5,2.76 -5,0 c 0,-2.76 2.3,-5 5,-5 2.76,0 5,2.24 5,5 z"
       sodipodi:nodetypes="sssss"
       id="path9-0-4-7-6" /></marker><marker
     style="overflow:visible"
     id="marker10-3-3-9-5"
     refX="0"
     refY="0"
     orient="auto"
     inkscape:stockid="Dot"
     markerWidth="1"
     markerHeight="1"
     viewBox="0 0 1 1"
     inkscape:isstock="true"
     inkscape:collect="always"
     preserveAspectRatio="xMidYMid"
     markerUnits="userSpaceOnUse"><path
       transform="scale(0.5)"
       style="fill:context-stroke;fill-rule:evenodd;stroke:none"
       d="M 5,0 C 5,2.76 2.76,5 0,5 -2.76,5 -5,2.76 -5,0 c 0,-2.76 2.3,-5 5,-5 2.76,0 5,2.24 5,5 z"
       sodipodi:nodetypes="sssss"
       id="path10-35-7-5-9" /></marker><inkscape:path-effect
     effect="spiro"
     id="path-effect570-4-9-54"
     is_visible="true"
     lpeversion="1" /><marker
     style="overflow:visible"
     id="marker22-3-4-1-9"
     refX="0"
     refY="0"
     orient="auto"
     inkscape:stockid="Dot"
     markerWidth="1"
     markerHeight="1"
     viewBox="0 0 1 1"
     inkscape:isstock="true"
     inkscape:collect="always"
     preserveAspectRatio="xMidYMid"
     markerUnits="userSpaceOnUse"><path
       transform="scale(0.5)"
       style="fill:context-stroke;fill-rule:evenodd;stroke:none"
       d="M 5,0 C 5,2.76 2.76,5 0,5 -2.76,5 -5,2.76 -5,0 c 0,-2.76 2.3,-5 5,-5 2.76,0 5,2.24 5,5 z"
       sodipodi:nodetypes="sssss"
       id="path22-2-3-0-1" /></marker><inkscape:path-effect
     effect="spiro"
     id="path-effect572-9-9-54"
     is_visible="true"
     lpeversion="1" /></defs><sodipodi:namedview
   id="namedview30"
   pagecolor="#ffffff"
   bordercolor="#000000"
   borderopacity="0.25"
   inkscape:showpageshadow="2"
   inkscape:pageopacity="0.0"
   inkscape:pagecheckerboard="0"
   inkscape:deskcolor="#d1d1d1"
   inkscape:zoom="2.2598074"
   inkscape:cx="66.15608"
   inkscape:cy="104.43368"
   inkscape:current-layer="g303-5-6-4"
   inkscape:document-units="in" />

<g
   id="g303-5-6-4"
   inkscape:label="forecoML"
   transform="matrix(3.7795276,0,0,3.7795276,-446.21988,-276)"><polygon
     fill="#264776"
     points="85.039,0 158.528,42.506 158.528,127.555 85.039,170.079 11.55,127.555 11.55,42.506 "
     id="polygon12-1-9-8"
     style="display:inline;fill:#a5c2df;fill-opacity:1;fill-rule:evenodd"
     inkscape:label="hex"
     transform="matrix(0.29868473,0,0,0.29868473,114.63349,73.024999)" /><g
     id="g18-5-5-3"
     style="display:inline;fill:#264776;fill-opacity:1"
     inkscape:label="text"
     transform="matrix(0.29868473,0,0,0.29868473,113.58392,73.024999)"><path
       fill="#fefefe"
       d="m 38.989,40.469 v 4.004 H 28.678 v 6.342 h 7.902 v 3.933 H 28.678 V 65.201 H 23.717 V 40.469 Z"
       id="path13-4-3-9"
       style="fill:#264776;fill-opacity:1" /><path
       fill="#fefefe"
       d="m 46.111,64.262 c -1.512,-0.838 -2.699,-2.025 -3.561,-3.561 -0.863,-1.535 -1.293,-3.307 -1.293,-5.315 0,-2.008 0.443,-3.779 1.329,-5.315 0.886,-1.536 2.096,-2.722 3.632,-3.562 1.536,-0.838 3.248,-1.258 5.138,-1.258 1.89,0 3.602,0.42 5.138,1.258 1.535,0.839 2.747,2.026 3.632,3.562 0.885,1.536 1.329,3.307 1.329,5.315 0,2.008 -0.455,3.78 -1.364,5.315 -0.91,1.536 -2.138,2.723 -3.685,3.561 -1.548,0.838 -3.278,1.258 -5.191,1.258 -1.892,0 -3.592,-0.419 -5.104,-1.258 z m 7.636,-3.72 c 0.791,-0.437 1.423,-1.092 1.896,-1.967 0.472,-0.874 0.708,-1.937 0.708,-3.189 0,-1.866 -0.49,-3.301 -1.47,-4.305 -0.981,-1.003 -2.179,-1.506 -3.597,-1.506 -1.417,0 -2.604,0.502 -3.561,1.506 -0.957,1.004 -1.435,2.439 -1.435,4.305 0,1.866 0.466,3.302 1.399,4.305 0.933,1.004 2.108,1.506 3.526,1.506 0.898,0 1.742,-0.218 2.534,-0.655 z"
       id="path14-2-2-0"
       style="fill:#264776;fill-opacity:1" /><path
       fill="#fefefe"
       d="m 77.859,65.201 -5.457,-9.638 h -2.338 v 9.638 H 65.103 V 40.469 h 9.284 c 1.913,0 3.543,0.337 4.889,1.01 1.347,0.673 2.356,1.583 3.029,2.729 0.674,1.146 1.011,2.427 1.011,3.844 0,1.63 -0.473,3.101 -1.417,4.412 -0.945,1.311 -2.351,2.214 -4.217,2.71 l 5.917,10.028 h -5.74 z M 70.063,51.843 h 4.146 c 1.347,0 2.351,-0.324 3.012,-0.974 0.661,-0.65 0.992,-1.553 0.992,-2.711 0,-1.134 -0.331,-2.014 -0.992,-2.64 -0.662,-0.626 -1.666,-0.939 -3.012,-0.939 h -4.146 z"
       id="path15-2-9-5"
       style="fill:#264776;fill-opacity:1" /><path
       fill="#fefefe"
       d="m 105.921,56.875 h -14.35 c 0.117,1.417 0.614,2.528 1.487,3.331 0.873,0.803 1.949,1.205 3.226,1.205 1.842,0 3.153,-0.791 3.932,-2.374 h 5.352 c -0.567,1.89 -1.653,3.443 -3.261,4.66 -1.606,1.217 -3.579,1.825 -5.917,1.825 -1.891,0 -3.585,-0.419 -5.085,-1.258 -1.5,-0.839 -2.669,-2.025 -3.507,-3.561 -0.84,-1.535 -1.258,-3.307 -1.258,-5.315 0,-2.031 0.412,-3.814 1.239,-5.35 0.826,-1.536 1.984,-2.717 3.472,-3.543 1.489,-0.827 3.202,-1.241 5.139,-1.241 1.865,0 3.538,0.402 5.015,1.205 1.476,0.803 2.621,1.943 3.437,3.419 0.814,1.477 1.223,3.171 1.223,5.085 -0.002,0.707 -0.049,1.345 -0.144,1.912 z m -4.996,-3.332 c -0.023,-1.276 -0.484,-2.297 -1.382,-3.064 -0.898,-0.768 -1.996,-1.152 -3.295,-1.152 -1.229,0 -2.262,0.372 -3.101,1.116 -0.839,0.744 -1.352,1.778 -1.541,3.101 h 9.319 z"
       id="path16-9-4-2"
       style="fill:#264776;fill-opacity:1" /><path
       fill="#fefefe"
       d="m 109.642,50.053 c 0.826,-1.524 1.973,-2.704 3.438,-3.543 1.465,-0.838 3.142,-1.258 5.031,-1.258 2.433,0 4.447,0.608 6.041,1.825 1.595,1.218 2.662,2.923 3.207,5.121 h -5.351 c -0.283,-0.851 -0.762,-1.518 -1.436,-2.002 -0.672,-0.484 -1.505,-0.727 -2.497,-0.727 -1.418,0 -2.539,0.514 -3.366,1.541 -0.827,1.028 -1.24,2.487 -1.24,4.376 0,1.866 0.413,3.313 1.24,4.341 0.827,1.027 1.948,1.541 3.366,1.541 2.007,0 3.317,-0.897 3.933,-2.693 h 5.351 c -0.545,2.126 -1.618,3.815 -3.226,5.067 -1.605,1.252 -3.613,1.878 -6.022,1.878 -1.89,0 -3.566,-0.419 -5.031,-1.258 -1.465,-0.839 -2.611,-2.02 -3.438,-3.543 -0.827,-1.523 -1.24,-3.301 -1.24,-5.333 -0.001,-2.031 0.412,-3.809 1.24,-5.333 z"
       id="path17-1-1-2"
       style="fill:#264776;fill-opacity:1" /><path
       fill="#fefefe"
       d="m 134.623,64.262 c -1.514,-0.838 -2.699,-2.025 -3.563,-3.561 -0.862,-1.535 -1.293,-3.307 -1.293,-5.315 0,-2.008 0.443,-3.779 1.329,-5.315 0.886,-1.536 2.096,-2.722 3.632,-3.562 1.534,-0.838 3.248,-1.258 5.138,-1.258 1.89,0 3.604,0.42 5.138,1.258 1.536,0.839 2.747,2.026 3.633,3.562 0.886,1.536 1.329,3.307 1.329,5.315 0,2.008 -0.457,3.78 -1.366,5.315 -0.908,1.536 -2.139,2.723 -3.684,3.561 -1.548,0.838 -3.278,1.258 -5.19,1.258 -1.892,0 -3.592,-0.419 -5.103,-1.258 z m 7.635,-3.72 c 0.792,-0.437 1.424,-1.092 1.896,-1.967 0.471,-0.874 0.708,-1.937 0.708,-3.189 0,-1.866 -0.491,-3.301 -1.472,-4.305 -0.98,-1.003 -2.178,-1.506 -3.596,-1.506 -1.417,0 -2.604,0.502 -3.56,1.506 -0.958,1.004 -1.437,2.439 -1.437,4.305 0,1.866 0.468,3.302 1.399,4.305 0.935,1.004 2.108,1.506 3.527,1.506 0.9,0 1.744,-0.218 2.535,-0.655 z"
       id="path18-5-6-7"
       style="fill:#264776;fill-opacity:1" /><text
       xml:space="preserve"
       style="font-weight:bold;font-size:35.0885px;font-family:'Chalkboard SE';-inkscape-font-specification:'Chalkboard SE Bold';text-align:start;writing-mode:lr-tb;direction:ltr;text-anchor:start;display:inline;fill:#ffffff;fill-opacity:1;stroke:#264776;stroke-width:4.14431;stroke-linecap:round;stroke-linejoin:round;stroke-dasharray:none;stroke-dashoffset:11.0572;stroke-opacity:1;paint-order:stroke markers fill"
       x="115.61303"
       y="78.755669"
       id="text60-8-6-3"
       transform="matrix(0.80785743,0,0,0.80785743,19.445314,11.115747)"><tspan
         sodipodi:role="line"
         id="tspan60-8-0-7"
         style="font-size:35.0885px;fill:#ffffff;fill-opacity:1;stroke:#264776;stroke-width:4.14431;stroke-dasharray:none;stroke-opacity:1;paint-order:stroke markers fill"
         x="115.61303"
         y="78.755669">ML</tspan></text></g><g
     id="g518-3-5-3"
     inkscape:label="icon"
     transform="matrix(0.24129468,0,0,0.24129468,119.98468,76.344316)"
     style="display:inline;stroke:#264776;stroke-opacity:1"><g
       id="g457-1-6-5"
       inkscape:label="te"
       transform="rotate(25,90.568399,102.50234)"
       style="display:inline;stroke:#264776;stroke-opacity:1"><circle
         style="display:inline;fill:none;fill-opacity:1;stroke:#264776;stroke-width:1.44;stroke-linecap:round;stroke-linejoin:round;stroke-dasharray:none;stroke-dashoffset:11.0572;stroke-opacity:1"
         id="circle443-1-4-2"
         cx="51.999237"
         cy="99.109657"
         r="9.6000004"
         transform="translate(33.378648,3.5143486)" /><path
         style="display:inline;fill:none;fill-opacity:1;stroke:#264776;stroke-width:2.4;stroke-linecap:round;stroke-linejoin:round;stroke-dasharray:none;stroke-dashoffset:11.0572;stroke-opacity:1"
         d="m 97.2,97.2 v 5.19965"
         id="path444-5-5-2"
         transform="rotate(180,94.891245,111.61133)" /><path
         style="display:inline;fill:none;fill-opacity:1;stroke:#264776;stroke-width:2.4;stroke-linecap:round;stroke-linejoin:round;stroke-dasharray:none;stroke-dashoffset:11.0572;stroke-opacity:1"
         d="m 104.4,97.2 v 5.19965"
         id="path445-3-2-6"
         transform="rotate(180,94.891245,111.61133)" /><path
         style="display:inline;fill:none;fill-opacity:1;stroke:#264776;stroke-width:2.4;stroke-linecap:round;stroke-linejoin:round;stroke-dasharray:none;stroke-dashoffset:11.0572;stroke-opacity:1"
         d="m 111.6,97.2 v 5.19965"
         id="path446-9-3-6"
         transform="rotate(180,94.891245,111.61133)" /><path
         style="display:inline;fill:none;fill-opacity:1;stroke:#264776;stroke-width:2.4;stroke-linecap:round;stroke-linejoin:round;stroke-dasharray:none;stroke-dashoffset:11.0572;stroke-opacity:1"
         d="m 97.2,97.2 v 5.19965"
         id="path447-6-0-7"
         transform="rotate(-90,85.899315,121.2264)" /><path
         style="display:inline;fill:none;fill-opacity:1;stroke:#264776;stroke-width:2.4;stroke-linecap:round;stroke-linejoin:round;stroke-dasharray:none;stroke-dashoffset:11.0572;stroke-opacity:1"
         d="m 104.4,97.2 v 5.19965"
         id="path448-3-6-8"
         transform="rotate(-90,85.899315,121.2264)" /><path
         style="display:inline;fill:none;fill-opacity:1;stroke:#264776;stroke-width:2.4;stroke-linecap:round;stroke-linejoin:round;stroke-dasharray:none;stroke-dashoffset:11.0572;stroke-opacity:1"
         d="m 111.6,97.2 v 5.19965"
         id="path449-1-4-4"
         transform="rotate(-90,85.899315,121.2264)" /><path
         style="display:inline;fill:none;fill-opacity:1;stroke:#264776;stroke-width:2.4;stroke-linecap:round;stroke-linejoin:round;stroke-dasharray:none;stroke-dashoffset:11.0572;stroke-opacity:1"
         d="m 97.2,97.2 v 5.19965"
         id="path450-8-7-1"
         transform="rotate(90,103.98029,102.10257)" /><path
         style="display:inline;fill:none;fill-opacity:1;stroke:#264776;stroke-width:2.4;stroke-linecap:round;stroke-linejoin:round;stroke-dasharray:none;stroke-dashoffset:11.0572;stroke-opacity:1"
         d="m 104.4,97.2 v 5.19965"
         id="path451-1-1-7"
         transform="rotate(90,103.98029,102.10257)" /><path
         style="display:inline;fill:none;fill-opacity:1;stroke:#264776;stroke-width:2.4;stroke-linecap:round;stroke-linejoin:round;stroke-dasharray:none;stroke-dashoffset:11.0572;stroke-opacity:1"
         d="m 111.6,97.2 v 5.19965"
         id="path452-3-1-1"
         transform="rotate(90,103.98029,102.10257)" /><path
         style="display:inline;fill:none;fill-opacity:1;stroke:#264776;stroke-width:2.4;stroke-linecap:round;stroke-linejoin:round;stroke-dasharray:none;stroke-dashoffset:11.0572;stroke-opacity:1"
         d="m 97.2,97.2 v 5.19965"
         id="path453-0-8-8"
         transform="translate(-19.026714,-17.974647)" /><path
         style="display:inline;fill:none;fill-opacity:1;stroke:#264776;stroke-width:2.4;stroke-linecap:round;stroke-linejoin:round;stroke-dasharray:none;stroke-dashoffset:11.0572;stroke-opacity:1"
         d="m 104.4,97.2 v 5.19965"
         id="path454-8-5-7"
         transform="translate(-19.026714,-17.974647)" /><path
         style="display:inline;fill:none;fill-opacity:1;stroke:#264776;stroke-width:2.4;stroke-linecap:round;stroke-linejoin:round;stroke-dasharray:none;stroke-dashoffset:11.0572;stroke-opacity:1"
         d="m 111.6,97.2 v 5.19965"
         id="path455-7-2-8"
         transform="translate(-19.026714,-17.974647)" /><path
         style="display:inline;fill:none;fill-opacity:1;stroke:#264776;stroke-width:0.96;stroke-linecap:round;stroke-linejoin:round;stroke-dasharray:none;stroke-dashoffset:11.0572;stroke-opacity:1"
         d="m 56.526194,93.035289 -4.946043,5.8545 2.523491,5.532891"
         id="path456-6-0-7"
         sodipodi:nodetypes="ccc"
         transform="translate(33.378648,3.5143483)" /><path
         style="baseline-shift:baseline;display:inline;overflow:visible;fill:none;fill-opacity:1;stroke:#264776;stroke-width:4.10078;stroke-linecap:round;stroke-linejoin:round;stroke-dasharray:none;stroke-dashoffset:11.0572;stroke-opacity:1;enable-background:accumulate;stop-color:#000000"
         d="m 77.054355,76.158014 a 9.2596759,9.177245 0 0 0 -9.258522,9.176542 v 13.518122 a 9.2596759,9.177245 0 0 0 9.258522,9.176522 h 13.353717 a 9.2596759,9.177245 0 0 0 9.258956,-9.176522 V 85.334556 a 9.2596759,9.177245 0 0 0 -9.258956,-9.176542 z"
         id="path457-2-1-7"
         transform="translate(1.6464571,10.530398)" /></g><g
       id="g472-9-1-4"
       inkscape:label="right"
       style="display:none;stroke:#264776;stroke-opacity:1"><path
         style="display:inline;fill:none;stroke:#264776;stroke-width:2.4;stroke-linecap:round;stroke-linejoin:round;stroke-dasharray:none;stroke-dashoffset:11.0572;stroke-opacity:1"
         d="m 97.2,97.2 v 5.19965"
         id="path458-1-2-4"
         transform="translate(2.793539,26.445155)" /><path
         style="display:inline;fill:none;stroke:#264776;stroke-width:2.4;stroke-linecap:round;stroke-linejoin:round;stroke-dasharray:none;stroke-dashoffset:11.0572;stroke-opacity:1"
         d="m 104.4,97.2 v 5.19965"
         id="path459-4-4-9"
         transform="translate(2.793539,26.445155)" /><path
         style="display:inline;fill:none;stroke:#264776;stroke-width:2.4;stroke-linecap:round;stroke-linejoin:round;stroke-dasharray:none;stroke-dashoffset:11.0572;stroke-opacity:1"
         d="m 97.2,97.2 v 5.19965"
         id="path460-1-5-1"
         transform="rotate(-90,119.01934,132.52618)" /><path
         style="baseline-shift:baseline;display:inline;overflow:visible;fill:none;stroke:#264776;stroke-width:2.4;stroke-linecap:round;stroke-linejoin:round;stroke-dasharray:none;stroke-dashoffset:11.0572;stroke-opacity:1;enable-background:accumulate;stop-color:#000000"
         d="m 72.788645,75.645255 a 9.8015895,9.8015895 0 0 0 -9.80037,9.80084 v 14.43778 a 9.8015895,9.8015895 0 0 0 9.80037,9.800825 h 14.13523 a 9.8015895,9.8015895 0 0 0 9.80083,-9.800825 v -14.43778 a 9.8015895,9.8015895 0 0 0 -9.80083,-9.80084 z"
         id="path461-2-5-5"
         transform="translate(27.337048,54.329041)" /><path
         style="fill:none;stroke:#264776;stroke-width:0.96;stroke-linecap:round;stroke-linejoin:round;stroke-dasharray:none;stroke-dashoffset:11.0572;stroke-opacity:1;marker-start:url(#Dot-7-1-1-9);marker-end:url(#marker10-4-9-1-1)"
         d="m 89.916173,108.331 c 1.71404,-1.54243 2.855339,-3.7074 3.159375,-5.99314 0.304037,-2.28573 -0.231645,-4.67377 -1.482889,-6.610627 -1.251244,-1.936857 -3.207943,-3.40689 -5.416591,-4.069387 -2.208648,-0.662497 -4.651402,-0.512107 -6.762104,0.416314 -0.294585,0.129577 -0.582783,0.273676 -0.863196,0.431597"
         id="path462-5-2-5"
         inkscape:path-effect="#path-effect566-6-5-7"
         inkscape:original-d="M 89.916173,108.331 C 86.463392,103.05592 82.866745,97.636974 79.413964,92.07416 75.961183,86.511347 78.886455,92.313936 78.550768,92.505757"
         transform="matrix(0.65849812,0,0,0.65849812,48.393806,84.683385)" /><path
         style="fill:none;stroke:#264776;stroke-width:0.96;stroke-linecap:round;stroke-linejoin:round;stroke-dasharray:none;stroke-dashoffset:11.0572;stroke-opacity:1;marker-end:url(#marker22-4-4-6-8)"
         d="m 86.751123,99.699051 4.028244,-9.351281 v 0"
         id="path463-0-3-5"
         transform="matrix(0.65849812,0,0,0.65849812,50.57272,80.799233)" /><circle
         style="display:inline;fill:none;stroke:#264776;stroke-width:1.44;stroke-linecap:round;stroke-linejoin:round;stroke-dasharray:none;stroke-dashoffset:11.0572;stroke-opacity:1"
         id="circle463-4-2-8"
         cx="54.685799"
         cy="98.214081"
         r="12.279069"
         transform="translate(52.512338,48.829728)" /><path
         style="display:inline;fill:none;stroke:#264776;stroke-width:2.4;stroke-linecap:round;stroke-linejoin:round;stroke-dasharray:none;stroke-dashoffset:11.0572;stroke-opacity:1"
         d="m 104.4,97.2 v 5.19965"
         id="path464-2-3-2"
         transform="rotate(-90,119.01934,132.52618)" /><path
         style="display:inline;fill:none;stroke:#264776;stroke-width:2.4;stroke-linecap:round;stroke-linejoin:round;stroke-dasharray:none;stroke-dashoffset:11.0572;stroke-opacity:1"
         d="m 111.6,97.2 v 5.19965"
         id="path465-6-1-9"
         transform="rotate(-90,119.01934,132.52618)" /><path
         style="display:inline;fill:none;stroke:#264776;stroke-width:2.4;stroke-linecap:round;stroke-linejoin:round;stroke-dasharray:none;stroke-dashoffset:11.0572;stroke-opacity:1"
         d="m 111.6,97.2 v 5.19965"
         id="path466-7-1-8"
         transform="translate(2.793539,26.445155)" /><path
         style="display:inline;fill:none;stroke:#264776;stroke-width:2.4;stroke-linecap:round;stroke-linejoin:round;stroke-dasharray:none;stroke-dashoffset:11.0572;stroke-opacity:1"
         d="m 97.2,97.2 v 5.19965"
         id="path467-6-9-2"
         transform="rotate(90,92.680515,135.2226)" /><path
         style="display:inline;fill:none;stroke:#264776;stroke-width:2.4;stroke-linecap:round;stroke-linejoin:round;stroke-dasharray:none;stroke-dashoffset:11.0572;stroke-opacity:1"
         d="m 97.2,97.2 v 5.19965"
         id="path468-3-8-0"
         transform="rotate(180,105.80137,133.82123)" /><path
         style="display:inline;fill:none;stroke:#264776;stroke-width:2.4;stroke-linecap:round;stroke-linejoin:round;stroke-dasharray:none;stroke-dashoffset:11.0572;stroke-opacity:1"
         d="m 104.4,97.2 v 5.19965"
         id="path469-4-0-7"
         transform="rotate(180,105.80137,133.82123)" /><path
         style="display:inline;fill:none;stroke:#264776;stroke-width:2.4;stroke-linecap:round;stroke-linejoin:round;stroke-dasharray:none;stroke-dashoffset:11.0572;stroke-opacity:1"
         d="m 111.6,97.2 v 5.19965"
         id="path470-1-9-4"
         transform="rotate(180,105.80137,133.82123)" /><path
         style="display:inline;fill:none;stroke:#264776;stroke-width:2.4;stroke-linecap:round;stroke-linejoin:round;stroke-dasharray:none;stroke-dashoffset:11.0572;stroke-opacity:1"
         d="m 104.4,97.2 v 5.19965"
         id="path471-9-5-8"
         transform="rotate(90,92.680515,135.2226)" /><path
         style="display:inline;fill:none;stroke:#264776;stroke-width:2.4;stroke-linecap:round;stroke-linejoin:round;stroke-dasharray:none;stroke-dashoffset:11.0572;stroke-opacity:1"
         d="m 111.6,97.2 v 5.19965"
         id="path472-5-2-5"
         transform="rotate(90,92.680515,135.2226)" /></g><g
       id="g487-9-4-8"
       inkscape:label="left"
       style="display:none;stroke:#264776;stroke-opacity:1"><path
         style="display:inline;fill:none;stroke:#264776;stroke-width:2.4;stroke-linecap:round;stroke-linejoin:round;stroke-dasharray:none;stroke-dashoffset:11.0572;stroke-opacity:1"
         d="m 97.2,97.2 v 5.19965"
         id="path473-8-2-3"
         transform="rotate(90,67.502681,101.877)" /><path
         style="display:inline;fill:none;stroke:#264776;stroke-width:2.4;stroke-linecap:round;stroke-linejoin:round;stroke-dasharray:none;stroke-dashoffset:11.0572;stroke-opacity:1"
         d="m 104.4,97.2 v 5.19965"
         id="path474-8-3-0"
         transform="rotate(90,67.502681,101.877)" /><path
         style="display:inline;fill:none;stroke:#264776;stroke-width:2.4;stroke-linecap:round;stroke-linejoin:round;stroke-dasharray:none;stroke-dashoffset:11.0572;stroke-opacity:1"
         d="m 111.6,97.2 v 5.19965"
         id="path475-8-5-6"
         transform="rotate(90,67.502681,101.877)" /><path
         style="display:inline;fill:none;stroke:#264776;stroke-width:2.4;stroke-linecap:round;stroke-linejoin:round;stroke-dasharray:none;stroke-dashoffset:11.0572;stroke-opacity:1"
         d="m 97.2,97.2 v 5.19965"
         id="path476-7-8-2"
         transform="rotate(180,76.539656,129.73735)" /><path
         style="baseline-shift:baseline;display:inline;overflow:visible;fill:none;stroke:#264776;stroke-width:2.4;stroke-linecap:round;stroke-linejoin:round;stroke-dasharray:none;stroke-dashoffset:11.0572;stroke-opacity:1;enable-background:accumulate;stop-color:#000000"
         d="m 72.788645,75.645255 a 9.8015895,9.8015895 0 0 0 -9.80037,9.80084 v 14.43778 a 9.8015895,9.8015895 0 0 0 9.80037,9.800825 h 14.13523 a 9.8015895,9.8015895 0 0 0 9.80083,-9.800825 v -14.43778 a 9.8015895,9.8015895 0 0 0 -9.80083,-9.80084 z"
         id="path477-3-4-2"
         transform="translate(-31.186384,46.161276)" /><path
         style="display:inline;fill:none;stroke:#264776;stroke-width:2.4;stroke-linecap:round;stroke-linejoin:round;stroke-dasharray:none;stroke-dashoffset:11.0572;stroke-opacity:1"
         d="m 97.2,97.2 v 5.19965"
         id="path478-8-5-5"
         transform="translate(-55.729893,18.27739)" /><path
         style="display:inline;fill:none;stroke:#264776;stroke-width:0.96;stroke-linecap:round;stroke-linejoin:round;stroke-dasharray:none;stroke-dashoffset:11.0572;stroke-opacity:1;marker-start:url(#Dot-5-8-3);marker-end:url(#marker10-6-1-1)"
         d="m 89.916173,108.331 c 1.71404,-1.54243 2.855339,-3.7074 3.159375,-5.99314 0.304037,-2.28573 -0.231645,-4.67377 -1.482889,-6.610627 -1.251244,-1.936857 -3.207943,-3.40689 -5.416591,-4.069387 -2.208648,-0.662497 -4.651402,-0.512107 -6.762104,0.416314 -0.294585,0.129577 -0.582783,0.273676 -0.863196,0.431597"
         id="path479-8-1-2"
         inkscape:path-effect="#path-effect568-7-5-3"
         inkscape:original-d="M 89.916173,108.331 C 86.463392,103.05592 82.866745,97.636974 79.413964,92.07416 75.961183,86.511347 78.886455,92.313936 78.550768,92.505757"
         transform="translate(-39.530605,42.564629)" /><path
         style="display:inline;fill:none;stroke:#264776;stroke-width:0.96;stroke-linecap:round;stroke-linejoin:round;stroke-dasharray:none;stroke-dashoffset:11.0572;stroke-opacity:1;marker-end:url(#marker22-0-4-5)"
         d="m 86.751123,99.699051 4.028244,-9.351281 v 0"
         id="path480-9-1-2"
         transform="translate(-36.22169,36.666128)" /><path
         style="display:inline;fill:none;stroke:#264776;stroke-width:2.4;stroke-linecap:round;stroke-linejoin:round;stroke-dasharray:none;stroke-dashoffset:11.0572;stroke-opacity:1"
         d="m 97.2,97.2 v 5.19965"
         id="path481-6-0-7"
         transform="rotate(-90,85.673744,157.70401)" /><path
         style="display:inline;fill:none;stroke:#264776;stroke-width:2.4;stroke-linecap:round;stroke-linejoin:round;stroke-dasharray:none;stroke-dashoffset:11.0572;stroke-opacity:1"
         d="m 104.4,97.2 v 5.19965"
         id="path482-8-4-1"
         transform="rotate(-90,85.673744,157.70401)" /><path
         style="display:inline;fill:none;stroke:#264776;stroke-width:2.4;stroke-linecap:round;stroke-linejoin:round;stroke-dasharray:none;stroke-dashoffset:11.0572;stroke-opacity:1"
         d="m 111.6,97.2 v 5.19965"
         id="path483-6-1-5"
         transform="rotate(-90,85.673744,157.70401)" /><path
         style="display:inline;fill:none;stroke:#264776;stroke-width:2.4;stroke-linecap:round;stroke-linejoin:round;stroke-dasharray:none;stroke-dashoffset:11.0572;stroke-opacity:1"
         d="m 104.4,97.2 v 5.19965"
         id="path484-9-6-2"
         transform="translate(-55.729893,18.27739)" /><path
         style="display:inline;fill:none;stroke:#264776;stroke-width:2.4;stroke-linecap:round;stroke-linejoin:round;stroke-dasharray:none;stroke-dashoffset:11.0572;stroke-opacity:1"
         d="m 111.6,97.2 v 5.19965"
         id="path485-5-1-1"
         transform="translate(-55.729893,18.27739)" /><path
         style="display:inline;fill:none;stroke:#264776;stroke-width:2.4;stroke-linecap:round;stroke-linejoin:round;stroke-dasharray:none;stroke-dashoffset:11.0572;stroke-opacity:1"
         d="m 104.4,97.2 v 5.19965"
         id="path486-9-4-1"
         transform="rotate(180,76.539656,129.73735)" /><path
         style="display:inline;fill:none;stroke:#264776;stroke-width:2.4;stroke-linecap:round;stroke-linejoin:round;stroke-dasharray:none;stroke-dashoffset:11.0572;stroke-opacity:1"
         d="m 111.6,97.2 v 5.19965"
         id="path487-6-5-0"
         transform="rotate(180,76.539656,129.73735)" /></g><g
       id="g502-8-2-1"
       inkscape:label="cs"
       transform="rotate(-20,174.13673,228.27996)"
       style="display:inline;stroke:#264776;stroke-opacity:1"><path
         style="display:inline;fill:none;fill-opacity:1;stroke:#264776;stroke-width:2.4;stroke-linecap:round;stroke-linejoin:round;stroke-dasharray:none;stroke-dashoffset:11.0572;stroke-opacity:1"
         d="m 97.2,97.2 v 5.19965"
         id="path488-6-3-8"
         transform="rotate(180,94.891245,111.61133)" /><path
         style="display:inline;fill:none;fill-opacity:1;stroke:#264776;stroke-width:2.4;stroke-linecap:round;stroke-linejoin:round;stroke-dasharray:none;stroke-dashoffset:11.0572;stroke-opacity:1"
         d="m 104.4,97.2 v 5.19965"
         id="path489-9-3-7"
         transform="rotate(180,94.891245,111.61133)" /><path
         style="display:inline;fill:none;fill-opacity:1;stroke:#264776;stroke-width:2.4;stroke-linecap:round;stroke-linejoin:round;stroke-dasharray:none;stroke-dashoffset:11.0572;stroke-opacity:1"
         d="m 111.6,97.2 v 5.19965"
         id="path490-4-6-6"
         transform="rotate(180,94.891245,111.61133)" /><path
         style="display:inline;fill:none;fill-opacity:1;stroke:#264776;stroke-width:2.4;stroke-linecap:round;stroke-linejoin:round;stroke-dasharray:none;stroke-dashoffset:11.0572;stroke-opacity:1"
         d="m 97.2,97.2 v 5.19965"
         id="path491-7-8-0"
         transform="rotate(-90,85.899315,121.2264)" /><path
         style="display:inline;fill:none;fill-opacity:1;stroke:#264776;stroke-width:2.4;stroke-linecap:round;stroke-linejoin:round;stroke-dasharray:none;stroke-dashoffset:11.0572;stroke-opacity:1"
         d="m 104.4,97.2 v 5.19965"
         id="path492-6-4-0"
         transform="rotate(-90,85.899315,121.2264)" /><path
         style="display:inline;fill:none;fill-opacity:1;stroke:#264776;stroke-width:2.4;stroke-linecap:round;stroke-linejoin:round;stroke-dasharray:none;stroke-dashoffset:11.0572;stroke-opacity:1"
         d="m 111.6,97.2 v 5.19965"
         id="path493-8-8-9"
         transform="rotate(-90,85.899315,121.2264)" /><path
         style="display:inline;fill:none;fill-opacity:1;stroke:#264776;stroke-width:2.4;stroke-linecap:round;stroke-linejoin:round;stroke-dasharray:none;stroke-dashoffset:11.0572;stroke-opacity:1"
         d="m 97.2,97.2 v 5.19965"
         id="path494-1-3-5"
         transform="rotate(90,103.98029,102.10257)" /><path
         style="display:inline;fill:none;fill-opacity:1;stroke:#264776;stroke-width:2.4;stroke-linecap:round;stroke-linejoin:round;stroke-dasharray:none;stroke-dashoffset:11.0572;stroke-opacity:1"
         d="m 104.4,97.2 v 5.19965"
         id="path495-3-9-6"
         transform="rotate(90,103.98029,102.10257)" /><path
         style="display:inline;fill:none;fill-opacity:1;stroke:#264776;stroke-width:2.4;stroke-linecap:round;stroke-linejoin:round;stroke-dasharray:none;stroke-dashoffset:11.0572;stroke-opacity:1"
         d="m 111.6,97.2 v 5.19965"
         id="path496-8-2-2"
         transform="rotate(90,103.98029,102.10257)" /><path
         style="display:inline;fill:none;fill-opacity:1;stroke:#264776;stroke-width:2.4;stroke-linecap:round;stroke-linejoin:round;stroke-dasharray:none;stroke-dashoffset:11.0572;stroke-opacity:1"
         d="m 97.2,97.2 v 5.19965"
         id="path497-0-3-8"
         transform="translate(-19.026714,-17.974647)" /><path
         style="display:inline;fill:none;fill-opacity:1;stroke:#264776;stroke-width:2.4;stroke-linecap:round;stroke-linejoin:round;stroke-dasharray:none;stroke-dashoffset:11.0572;stroke-opacity:1"
         d="m 104.4,97.2 v 5.19965"
         id="path498-8-0-5"
         transform="translate(-19.026714,-17.974647)" /><path
         style="display:inline;fill:none;fill-opacity:1;stroke:#264776;stroke-width:2.4;stroke-linecap:round;stroke-linejoin:round;stroke-dasharray:none;stroke-dashoffset:11.0572;stroke-opacity:1"
         d="m 111.6,97.2 v 5.19965"
         id="path499-1-9-9"
         transform="translate(-19.026714,-17.974647)" /><path
         style="baseline-shift:baseline;display:inline;overflow:visible;fill:none;fill-opacity:1;stroke:#264776;stroke-width:4.10078;stroke-linecap:round;stroke-linejoin:round;stroke-dasharray:none;stroke-dashoffset:11.0572;stroke-opacity:1;enable-background:accumulate;stop-color:#000000"
         d="m 77.054355,76.158014 a 9.2596759,9.177245 0 0 0 -9.258522,9.176542 v 13.518122 a 9.2596759,9.177245 0 0 0 9.258522,9.176522 h 13.353717 a 9.2596759,9.177245 0 0 0 9.258956,-9.176522 V 85.334556 a 9.2596759,9.177245 0 0 0 -9.258956,-9.176542 z"
         id="path500-1-2-4"
         transform="translate(1.6464571,10.530398)" /><path
         style="display:inline;fill:none;fill-opacity:1;stroke:#264776;stroke-width:0.96;stroke-linecap:round;stroke-linejoin:round;stroke-dasharray:none;stroke-dashoffset:11.0572;stroke-opacity:1;marker-start:url(#Dot-6-1-6-3);marker-end:url(#marker10-3-3-9-5)"
         d="m 92.620643,102.39888 c -0.05434,-3.080773 -1.539781,-6.106971 -3.943772,-8.03439 -2.403991,-1.927419 -5.680762,-2.719367 -8.699651,-2.102578 -0.516624,0.105551 -1.025304,0.249958 -1.520328,0.431597"
         id="path501-8-7-3"
         inkscape:path-effect="#path-effect570-4-9-54"
         inkscape:original-d="M 92.620643,102.39888 C 89.167862,97.123798 83.430001,97.824726 79.97722,92.261912 c -3.452781,-5.562813 -1.184641,0.239776 -1.520328,0.431597"
         transform="translate(-1.9216775,9.4094438)"
         sodipodi:nodetypes="csc" /><path
         style="display:inline;fill:none;fill-opacity:1;stroke:#264776;stroke-width:0.96;stroke-linecap:round;stroke-linejoin:round;stroke-dasharray:none;stroke-dashoffset:11.0572;stroke-opacity:1;marker-end:url(#marker22-3-4-1-9)"
         d="m 84.332755,92.21022 4.028244,-9.35129 v 0"
         id="path502-7-2-9"
         sodipodi:nodetypes="ccc"
         transform="translate(1.6464571,10.530398)" /></g><g
       id="g517-6-2-0"
       inkscape:label="ct"
       transform="rotate(10,-179.70007,215.64641)"
       style="stroke:#264776;stroke-opacity:1"><path
         style="display:inline;fill:none;fill-opacity:1;stroke:#264776;stroke-width:2.4;stroke-linecap:round;stroke-linejoin:round;stroke-dasharray:none;stroke-dashoffset:11.0572;stroke-opacity:1"
         d="m 97.2,97.2 v 5.19965"
         id="path503-1-7-5"
         transform="rotate(180,94.891245,111.61133)" /><path
         style="display:inline;fill:none;fill-opacity:1;stroke:#264776;stroke-width:2.4;stroke-linecap:round;stroke-linejoin:round;stroke-dasharray:none;stroke-dashoffset:11.0572;stroke-opacity:1"
         d="m 104.4,97.2 v 5.19965"
         id="path504-8-9-6"
         transform="rotate(180,94.891245,111.61133)" /><path
         style="display:inline;fill:none;fill-opacity:1;stroke:#264776;stroke-width:2.4;stroke-linecap:round;stroke-linejoin:round;stroke-dasharray:none;stroke-dashoffset:11.0572;stroke-opacity:1"
         d="m 111.6,97.2 v 5.19965"
         id="path505-8-3-3"
         transform="rotate(180,94.891245,111.61133)" /><path
         style="display:inline;fill:none;fill-opacity:1;stroke:#264776;stroke-width:2.4;stroke-linecap:round;stroke-linejoin:round;stroke-dasharray:none;stroke-dashoffset:11.0572;stroke-opacity:1"
         d="m 97.2,97.2 v 5.19965"
         id="path506-3-0-6"
         transform="rotate(-90,85.899315,121.2264)" /><path
         style="display:inline;fill:none;fill-opacity:1;stroke:#264776;stroke-width:2.4;stroke-linecap:round;stroke-linejoin:round;stroke-dasharray:none;stroke-dashoffset:11.0572;stroke-opacity:1"
         d="m 104.4,97.2 v 5.19965"
         id="path507-5-9-3"
         transform="rotate(-90,85.899315,121.2264)" /><path
         style="display:inline;fill:none;fill-opacity:1;stroke:#264776;stroke-width:2.4;stroke-linecap:round;stroke-linejoin:round;stroke-dasharray:none;stroke-dashoffset:11.0572;stroke-opacity:1"
         d="m 111.6,97.2 v 5.19965"
         id="path508-6-0-0"
         transform="rotate(-90,85.899315,121.2264)" /><path
         style="display:inline;fill:none;fill-opacity:1;stroke:#264776;stroke-width:2.4;stroke-linecap:round;stroke-linejoin:round;stroke-dasharray:none;stroke-dashoffset:11.0572;stroke-opacity:1"
         d="m 97.2,97.2 v 5.19965"
         id="path509-8-1-8"
         transform="rotate(90,103.98029,102.10257)" /><path
         style="display:inline;fill:none;fill-opacity:1;stroke:#264776;stroke-width:2.4;stroke-linecap:round;stroke-linejoin:round;stroke-dasharray:none;stroke-dashoffset:11.0572;stroke-opacity:1"
         d="m 104.4,97.2 v 5.19965"
         id="path510-8-5-4"
         transform="rotate(90,103.98029,102.10257)" /><path
         style="display:inline;fill:none;fill-opacity:1;stroke:#264776;stroke-width:2.4;stroke-linecap:round;stroke-linejoin:round;stroke-dasharray:none;stroke-dashoffset:11.0572;stroke-opacity:1"
         d="m 111.6,97.2 v 5.19965"
         id="path511-9-8-0"
         transform="rotate(90,103.98029,102.10257)" /><path
         style="display:inline;fill:none;fill-opacity:1;stroke:#264776;stroke-width:2.4;stroke-linecap:round;stroke-linejoin:round;stroke-dasharray:none;stroke-dashoffset:11.0572;stroke-opacity:1"
         d="m 97.2,97.2 v 5.19965"
         id="path512-9-2-4"
         transform="translate(-19.026714,-17.974647)" /><path
         style="display:inline;fill:none;fill-opacity:1;stroke:#264776;stroke-width:2.4;stroke-linecap:round;stroke-linejoin:round;stroke-dasharray:none;stroke-dashoffset:11.0572;stroke-opacity:1"
         d="m 104.4,97.2 v 5.19965"
         id="path513-3-5-6"
         transform="translate(-19.026714,-17.974647)" /><path
         style="display:inline;fill:none;fill-opacity:1;stroke:#264776;stroke-width:2.4;stroke-linecap:round;stroke-linejoin:round;stroke-dasharray:none;stroke-dashoffset:11.0572;stroke-opacity:1"
         d="m 111.6,97.2 v 5.19965"
         id="path514-7-0-4"
         transform="translate(-19.026714,-17.974647)" /><path
         style="display:inline;fill:none;fill-opacity:1;stroke:#264776;stroke-width:0.96;stroke-linecap:round;stroke-linejoin:round;stroke-dasharray:none;stroke-dashoffset:11.0572;stroke-opacity:1;marker-start:url(#Dot-6-1-6-3);marker-end:url(#marker10-3-3-9-5)"
         d="m 92.620643,102.39888 c -0.05434,-3.080773 -1.539781,-6.106971 -3.943772,-8.03439 -2.403991,-1.927419 -5.680762,-2.719367 -8.699651,-2.102578 -0.516624,0.105551 -1.025304,0.249958 -1.520328,0.431597"
         id="path515-2-2-6"
         inkscape:path-effect="#path-effect572-9-9-54"
         inkscape:original-d="M 92.620643,102.39888 C 89.167862,97.123798 83.430001,97.824726 79.97722,92.261912 c -3.452781,-5.562813 -1.184641,0.239776 -1.520328,0.431597"
         transform="translate(-2.6952824,9.3407475)"
         sodipodi:nodetypes="csc" /><path
         style="display:inline;fill:none;fill-opacity:1;stroke:#264776;stroke-width:0.96;stroke-linecap:round;stroke-linejoin:round;stroke-dasharray:none;stroke-dashoffset:11.0572;stroke-opacity:1;marker-end:url(#marker22-3-4-1-9)"
         d="m 84.332755,92.21022 4.028244,-9.35129 v 0"
         id="path516-3-8-4"
         sodipodi:nodetypes="ccc"
         transform="translate(0.87285222,10.461703)" /><circle
         style="display:inline;fill:none;fill-opacity:1;stroke:#264776;stroke-width:1.44;stroke-linecap:round;stroke-linejoin:round;stroke-dasharray:none;stroke-dashoffset:11.0572;stroke-opacity:1"
         id="circle516-8-3-3"
         cx="83.73143"
         cy="92.093605"
         r="12.279069"
         transform="translate(1.6464574,10.530401)" /><path
         style="baseline-shift:baseline;display:inline;overflow:visible;fill:none;fill-opacity:1;stroke:#264776;stroke-width:4.10078;stroke-linecap:round;stroke-linejoin:round;stroke-dasharray:none;stroke-dashoffset:11.0572;stroke-opacity:1;enable-background:accumulate;stop-color:#000000"
         d="m 77.054355,76.158014 a 9.2596759,9.177245 0 0 0 -9.258522,9.176542 v 13.518122 a 9.2596759,9.177245 0 0 0 9.258522,9.176522 h 13.353717 a 9.2596759,9.177245 0 0 0 9.258956,-9.176522 V 85.334556 a 9.2596759,9.177245 0 0 0 -9.258956,-9.176542 z"
         id="path517-3-9-8"
         transform="translate(1.6464571,10.530398)" /></g></g></g>
</svg>
